<svg width="50" height="40" viewBox="0 0 87 77" fill="none" xmlns="http://www.w3.org/2000/svg">
<g clip-path="url(#clip0_1002_1364)">
<circle cx="38.5" cy="38.5" r="38.5" fill="#F3F3F3"/>
<path d="M65 39C65 53.9117 52.9117 66 38 66C23.0883 66 11 53.9117 11 39C11 24.0883 23.0883 12 38 12C52.9117 12 65 24.0883 65 39Z" fill="white"/>
<path d="M79.4685 11.1706L34.2125 56.4266L15.8285 38.0416C14.2665 36.4796 11.7335 36.4796 10.1715 38.0416C8.6095 39.6036 8.6095 42.1366 10.1715 43.6986L31.3845 64.9116C32.9465 66.4736 35.4795 66.4736 37.0415 64.9116L85.1245 16.8276C86.6865 15.2656 86.6865 12.7336 85.1245 11.1716C83.5625 9.60962 81.0315 9.60963 79.4685 11.1706Z" fill="#C01111"/>
</g>
</svg>
