<svg width="11" height="19" viewBox="0 0 11 19" fill="none" xmlns="http://www.w3.org/2000/svg">
<path d="M1.99977 1.54246e-06C1.80042 -0.000348485 1.60552 0.0588823 1.44008 0.170091C1.27464 0.2813 1.14621 0.439413 1.07127 0.624135C0.996331 0.808858 0.978305 1.01176 1.01951 1.2068C1.06071 1.40184 1.15925 1.58012 1.3025 1.71875L8.58571 9L1.3025 16.2813C1.20654 16.3734 1.12993 16.4838 1.07716 16.6059C1.02439 16.728 0.996515 16.8594 0.995168 16.9925C0.993822 17.1255 1.01903 17.2575 1.06932 17.3806C1.11961 17.5038 1.19397 17.6157 1.28804 17.7098C1.38212 17.8039 1.49401 17.8782 1.61718 17.9285C1.74035 17.9788 1.87231 18.004 2.00534 18.0026C2.13838 18.0013 2.2698 17.9734 2.39193 17.9207C2.51405 17.8679 2.62442 17.7913 2.71657 17.6953L10.7068 9.70703C10.8943 9.51949 10.9996 9.26517 10.9996 9C10.9996 8.73483 10.8943 8.48051 10.7068 8.29297L2.71657 0.304692C2.62354 0.208543 2.51217 0.132036 2.38905 0.0796999C2.26592 0.0273639 2.13355 0.000262953 1.99977 1.54246e-06Z" fill="black"/>
</svg>
