<svg width="11" height="19" viewBox="0 0 11 19" fill="none" xmlns="http://www.w3.org/2000/svg">
<path d="M9.99486 18.0029C10.1942 18.0033 10.3891 17.944 10.5545 17.8328C10.72 17.7216 10.8484 17.5635 10.9234 17.3788C10.9983 17.1941 11.0163 16.9912 10.9751 16.7961C10.9339 16.6011 10.8354 16.4228 10.6921 16.2842L3.40892 9.00293L10.6921 1.72168C10.7881 1.62953 10.8647 1.51916 10.9175 1.39704C10.9702 1.27491 10.9981 1.14348 10.9995 1.01045C11.0008 0.87742 10.9756 0.745456 10.9253 0.622288C10.875 0.49912 10.8007 0.387224 10.7066 0.293152C10.6125 0.19908 10.5006 0.124721 10.3774 0.0744324C10.2543 0.0241439 10.1223 -0.00106479 9.98928 0.000282376C9.85625 0.00162954 9.72482 0.0295068 9.6027 0.0822793C9.48058 0.135052 9.37021 0.211659 9.27806 0.307617L1.28783 8.2959C1.10036 8.48344 0.995055 8.73776 0.995055 9.00293C0.995055 9.2681 1.10036 9.52242 1.28783 9.70996L9.27806 17.6982C9.37109 17.7944 9.48246 17.8709 9.60558 17.9232C9.7287 17.9756 9.86108 18.0027 9.99486 18.0029Z" fill="black"/>
</svg>
